<svg xmlns="http://www.w3.org/2000/svg" xmlns:xlink="http://www.w3.org/1999/xlink" viewBox="0 0 460 334.75"><defs><linearGradient id="a" x1="439.24" y1="367" x2="596.24" y2="367" gradientUnits="userSpaceOnUse"><stop offset="0.37" stop-color="#00b894"/><stop offset="0.46" stop-color="#07b89b"/><stop offset="0.61" stop-color="#1cb8ae"/><stop offset="0.78" stop-color="#3eb9cd"/><stop offset="0.97" stop-color="#6db9f8"/><stop offset="1" stop-color="#74b9ff"/></linearGradient><linearGradient id="b" x1="441.45" y1="367" x2="641.24" y2="367" xlink:href="#a"/><linearGradient id="c" x1="2336.83" y1="367" x2="2523.83" y2="367" gradientTransform="matrix(-1, 0, 0, 1, 2758.07, 0)" gradientUnits="userSpaceOnUse"><stop offset="0" stop-color="#00b894"/><stop offset="0.16" stop-color="#1cb8ae"/><stop offset="0.41" stop-color="#42b9d1"/><stop offset="0.64" stop-color="#5db9ea"/><stop offset="0.85" stop-color="#6eb9fa"/><stop offset="1" stop-color="#74b9ff"/></linearGradient><linearGradient id="d" x1="2336.81" y1="367" x2="2576.83" y2="367" gradientTransform="matrix(-1, 0, 0, 1, 2758.07, 0)" xlink:href="#a"/></defs><title>logo-no-text</title><path d="M596.24,199.63s-157,11.49-157,98.52V534.37c87.62-3.39,157-48.66,157-104,0-.83-.07-1.64-.1-2.46h.1Z" transform="translate(-181.24 -199.63)" style="fill:url(#a)"/><path d="M641.24,199.63S522.52,264.93,522.52,391c0,87-81.07,143.4-81.07,143.4,111.5-3.39,199.79-48.66,199.79-104,0-.83-.09-1.64-.13-2.46h.13Z" transform="translate(-181.24 -199.63)" style="opacity:0.5;fill:url(#b)"/><path d="M234.24,199.63s187,11.49,187,98.52V534.37c-104.36-3.39-187-48.66-187-104,0-.83.08-1.64.12-2.46h-.12Z" transform="translate(-181.24 -199.63)" style="fill:url(#c)"/><path d="M181.24,199.63S323.86,264.93,323.86,391c0,87,97.4,143.4,97.4,143.4-133.95-3.39-240-48.66-240-104,0-.83.11-1.64.15-2.46h-.15Z" transform="translate(-181.24 -199.63)" style="opacity:0.5;fill:url(#d)"/></svg>