<svg xmlns="http://www.w3.org/2000/svg" xmlns:xlink="http://www.w3.org/1999/xlink" viewBox="0 0 1627.27 334.75"><defs><linearGradient id="a" x1="439.24" y1="367" x2="596.24" y2="367" gradientUnits="userSpaceOnUse"><stop offset="0.37" stop-color="#00b894"/><stop offset="0.46" stop-color="#07b89b"/><stop offset="0.61" stop-color="#1cb8ae"/><stop offset="0.78" stop-color="#3eb9cd"/><stop offset="0.97" stop-color="#6db9f8"/><stop offset="1" stop-color="#74b9ff"/></linearGradient><linearGradient id="b" x1="441.45" y1="367" x2="641.24" y2="367" xlink:href="#a"/><linearGradient id="c" x1="2336.83" y1="367" x2="2523.83" y2="367" gradientTransform="matrix(-1, 0, 0, 1, 2758.07, 0)" gradientUnits="userSpaceOnUse"><stop offset="0" stop-color="#00b894"/><stop offset="0.16" stop-color="#1cb8ae"/><stop offset="0.41" stop-color="#42b9d1"/><stop offset="0.64" stop-color="#5db9ea"/><stop offset="0.85" stop-color="#6eb9fa"/><stop offset="1" stop-color="#74b9ff"/></linearGradient><linearGradient id="d" x1="2336.81" y1="367" x2="2576.83" y2="367" gradientTransform="matrix(-1, 0, 0, 1, 2758.07, 0)" xlink:href="#a"/></defs><title>logo-b</title><path d="M788.12,316.84a73.91,73.91,0,0,1,28.47,5.25A60.07,60.07,0,0,1,838.17,337a66.08,66.08,0,0,1,13.63,23.36,101,101,0,0,1,0,61.27,66.15,66.15,0,0,1-13.63,23.29,59.27,59.27,0,0,1-21.58,14.84,80.79,80.79,0,0,1-56.94,0A59.92,59.92,0,0,1,738,444.92a66.36,66.36,0,0,1-13.77-23.29,99.63,99.63,0,0,1,0-61.27A66.28,66.28,0,0,1,738,337a60.73,60.73,0,0,1,21.65-14.91A73.9,73.9,0,0,1,788.12,316.84Zm0,128.37q21.3,0,31.81-14.27t10.51-39.83q0-25.7-10.51-40t-31.81-14.34a44.15,44.15,0,0,0-18.74,3.69,35.1,35.1,0,0,0-13.28,10.65,47.3,47.3,0,0,0-8,17.11,101.1,101.1,0,0,0,0,45.79,46.56,46.56,0,0,0,8,17,35.33,35.33,0,0,0,13.28,10.58A44.12,44.12,0,0,0,788.12,445.21Z" transform="translate(-181.24 -199.63)" style="fill:#fff"/><path d="M887.8,511.66V319.11h15.05q5.4,0,6.82,5.25l2.13,17a76.78,76.78,0,0,1,21.09-18q11.85-6.82,27.33-6.82a51.94,51.94,0,0,1,22.44,4.76,46.3,46.3,0,0,1,17.18,14.06q7.1,9.3,10.93,23.07a118.45,118.45,0,0,1,3.83,31.67,99.25,99.25,0,0,1-4.26,29.61,72.11,72.11,0,0,1-12.21,23.71,57,57,0,0,1-19.53,15.76,57.76,57.76,0,0,1-26.06,5.75q-13.35,0-22.79-4.4A51.32,51.32,0,0,1,913.08,448v63.62Zm64-174.66a40.73,40.73,0,0,0-21.66,5.68,62.42,62.42,0,0,0-17.11,16v69.58q7,9.37,15.27,13.21a43.7,43.7,0,0,0,18.53,3.83q20,0,30.81-14.34t10.79-40.9A102.12,102.12,0,0,0,986,366a47.23,47.23,0,0,0-7.17-16.54,27.91,27.91,0,0,0-11.5-9.44A38.27,38.27,0,0,0,951.84,337Z" transform="translate(-181.24 -199.63)" style="fill:#fff"/><path d="M1101.51,316.84a64.24,64.24,0,0,1,23.86,4.33,53.6,53.6,0,0,1,18.89,12.5,57,57,0,0,1,12.42,20.16,77.9,77.9,0,0,1,4.47,27.33q0,6-1.28,8t-4.83,2h-95.71a79.37,79.37,0,0,0,3.69,23.71,48.44,48.44,0,0,0,9.37,16.83,37.51,37.51,0,0,0,14.2,10.08,48.74,48.74,0,0,0,18.46,3.34,54.12,54.12,0,0,0,16.4-2.2,78.08,78.08,0,0,0,11.86-4.76,90.36,90.36,0,0,0,8.31-4.76,11,11,0,0,1,5.75-2.2,5.57,5.57,0,0,1,4.83,2.41l7.1,9.23a48,48,0,0,1-11.22,9.87,69.71,69.71,0,0,1-14,6.89,88.72,88.72,0,0,1-15.41,4,94.24,94.24,0,0,1-15.76,1.35,73.17,73.17,0,0,1-27.48-5,60.28,60.28,0,0,1-21.73-14.77,67.73,67.73,0,0,1-14.27-24.07q-5.11-14.34-5.11-32.94A83.82,83.82,0,0,1,1039,360a66.24,66.24,0,0,1,13.28-22.65,61.11,61.11,0,0,1,21.16-15.05A69.47,69.47,0,0,1,1101.51,316.84Zm.57,18.6q-18.32,0-28.83,10.58t-13.06,29.32h78.24a51.19,51.19,0,0,0-2.41-16.12,35.94,35.94,0,0,0-7.1-12.64,31.8,31.8,0,0,0-11.43-8.24A38.59,38.59,0,0,0,1102.07,335.44Z" transform="translate(-181.24 -199.63)" style="fill:#fff"/><path d="M1193.38,463V319.11h15.05q5.4,0,6.82,5.25l2,15.62a80.86,80.86,0,0,1,20.95-16.76q11.57-6.39,26.77-6.39a52,52,0,0,1,20.8,3.91,40.3,40.3,0,0,1,15.05,11.08,49,49,0,0,1,9.16,17.25,75.14,75.14,0,0,1,3.12,22.29V463h-25.28V371.37q0-16.33-7.46-25.35t-22.79-9a42.49,42.49,0,0,0-20.95,5.4,69,69,0,0,0-18,14.63V463Z" transform="translate(-181.24 -199.63)" style="fill:#fff"/><path d="M1394.88,465.23q-17,0-26.2-9.51t-9.16-27.41v-88h-17.32a5.65,5.65,0,0,1-3.83-1.35,5.24,5.24,0,0,1-1.56-4.19V324.65l23.57-3,5.82-44.45a5.37,5.37,0,0,1,1.85-3.48,5.86,5.86,0,0,1,4-1.35h12.78V322H1426v18.32h-41.18V426.6q0,9.09,4.4,13.49a15.37,15.37,0,0,0,11.36,4.4,20.06,20.06,0,0,0,6.89-1.06,29.59,29.59,0,0,0,5-2.34q2.13-1.28,3.62-2.34a4.74,4.74,0,0,1,2.63-1.06q2,0,3.55,2.41l7.38,12.07a47.08,47.08,0,0,1-15.76,9.58A53.53,53.53,0,0,1,1394.88,465.23Z" transform="translate(-181.24 -199.63)" style="fill:#fff"/><path d="M1479.08,319.11v91.73q0,16.33,7.53,25.28t22.72,8.95a43.51,43.51,0,0,0,20.87-5.25,64.9,64.9,0,0,0,18-14.63V319.11h25.28V463h-15.05q-5.4,0-6.82-5.25l-2-15.48a79.12,79.12,0,0,1-21,16.69q-11.65,6.32-26.7,6.32a52,52,0,0,1-20.8-3.9,41.2,41.2,0,0,1-15.12-11,46.69,46.69,0,0,1-9.16-17.18,76.64,76.64,0,0,1-3.05-22.29V319.11Z" transform="translate(-181.24 -199.63)" style="fill:#fff"/><path d="M1658.71,465.23q-17,0-26.2-9.51t-9.16-27.41v-88H1606a5.65,5.65,0,0,1-3.83-1.35,5.24,5.24,0,0,1-1.56-4.19V324.65l23.57-3,5.82-44.45a5.37,5.37,0,0,1,1.85-3.48,5.86,5.86,0,0,1,4-1.35h12.78V322h41.18v18.32h-41.18V426.6q0,9.09,4.4,13.49a15.37,15.37,0,0,0,11.36,4.4,20.06,20.06,0,0,0,6.89-1.06,29.59,29.59,0,0,0,5-2.34q2.13-1.28,3.62-2.34a4.74,4.74,0,0,1,2.63-1.06q2,0,3.55,2.41l7.38,12.07a47.08,47.08,0,0,1-15.76,9.58A53.53,53.53,0,0,1,1658.71,465.23Z" transform="translate(-181.24 -199.63)" style="fill:#fff"/><path d="M1721,463V319.11h14.48q4.12,0,5.68,1.56t2.13,5.4l1.7,22.44q7.38-15,18.25-23.5a43,43,0,0,1,36.28-7.1,37.77,37.77,0,0,1,8.95,3.76l-3.27,18.89q-1,3.55-4.4,3.55a22,22,0,0,1-6.11-1.35,38.55,38.55,0,0,0-11.5-1.35q-13.21,0-22.08,7.67t-14.84,22.29V463Z" transform="translate(-181.24 -199.63)" style="fill:#fff"/><path d="M596.24,199.63s-157,11.49-157,98.52V534.37c87.62-3.39,157-48.66,157-104,0-.83-.07-1.64-.1-2.46h.1Z" transform="translate(-181.24 -199.63)" style="fill:url(#a)"/><path d="M641.24,199.63S522.52,264.93,522.52,391c0,87-81.07,143.4-81.07,143.4,111.5-3.39,199.79-48.66,199.79-104,0-.83-.09-1.64-.13-2.46h.13Z" transform="translate(-181.24 -199.63)" style="opacity:0.5;fill:url(#b)"/><path d="M234.24,199.63s187,11.49,187,98.52V534.37c-104.36-3.39-187-48.66-187-104,0-.83.08-1.64.12-2.46h-.12Z" transform="translate(-181.24 -199.63)" style="fill:url(#c)"/><path d="M181.24,199.63S323.86,264.93,323.86,391c0,87,97.4,143.4,97.4,143.4-133.95-3.39-240-48.66-240-104,0-.83.11-1.64.15-2.46h-.15Z" transform="translate(-181.24 -199.63)" style="opacity:0.5;fill:url(#d)"/></svg>